<mxfile host="app.diagrams.net" modified="2023-12-29T16:52:10.210Z" agent="Mozilla/5.0 (X11; Linux x86_64) AppleWebKit/537.36 (KHTML, like Gecko) Chrome/120.0.0.0 Safari/537.36" etag="B2XQSTXm6pL6IuDbcPko" version="22.1.16" type="google">
  <diagram name="013-LinkingByReference" id="O0EzCrE9_i2seC9WDiSg">
    <mxGraphModel grid="1" page="1" gridSize="10" guides="1" tooltips="1" connect="1" arrows="1" fold="1" pageScale="1" pageWidth="827" pageHeight="1169" math="0" shadow="0">
      <root>
        <mxCell id="0" />
        <mxCell id="1" parent="0" />
        <mxCell id="VSZ_r1YbwB4cjB5XSmfl-58" value="&lt;div&gt;&lt;i&gt;This work is licensed under a&lt;/i&gt;&lt;/div&gt;&lt;div&gt;&lt;b&gt;&lt;i&gt;Creative Commons Attribution 4.0 International License&lt;/i&gt;&lt;/b&gt;&lt;/div&gt;" style="text;html=1;strokeColor=none;fillColor=none;align=center;verticalAlign=middle;whiteSpace=wrap;rounded=0;fontSize=20;fontFamily=Architects Daughter;" vertex="1" parent="1">
          <mxGeometry x="-160" y="790" width="970" height="60" as="geometry" />
        </mxCell>
        <mxCell id="VNHyF-aAn-dnILhqdXVQ-1" value="Creative&lt;br&gt;Work&amp;nbsp;" style="ellipse;whiteSpace=wrap;html=1;aspect=fixed;sketch=1;hachureGap=4;jiggle=2;curveFitting=1;fontFamily=Architects Daughter;fontSource=https://fonts.googleapis.com/css?family=Architects+Daughter;fontSize=20;fillColor=#d5e8d4;strokeColor=#82b366;" vertex="1" parent="1">
          <mxGeometry x="315" y="70" width="110" height="110" as="geometry" />
        </mxCell>
        <mxCell id="VNHyF-aAn-dnILhqdXVQ-2" style="edgeStyle=none;rounded=0;sketch=1;hachureGap=4;jiggle=2;curveFitting=1;orthogonalLoop=1;jettySize=auto;html=1;fontFamily=Architects Daughter;fontSource=https://fonts.googleapis.com/css?family=Architects+Daughter;fontSize=16;" edge="1" parent="1" source="VNHyF-aAn-dnILhqdXVQ-3" target="VNHyF-aAn-dnILhqdXVQ-1">
          <mxGeometry relative="1" as="geometry" />
        </mxCell>
        <mxCell id="VNHyF-aAn-dnILhqdXVQ-3" value="Book" style="ellipse;whiteSpace=wrap;html=1;aspect=fixed;sketch=1;hachureGap=4;jiggle=2;curveFitting=1;fontFamily=Architects Daughter;fontSource=https://fonts.googleapis.com/css?family=Architects+Daughter;fontSize=20;fillColor=#d5e8d4;strokeColor=#82b366;" vertex="1" parent="1">
          <mxGeometry x="140" y="270" width="110" height="110" as="geometry" />
        </mxCell>
        <mxCell id="VNHyF-aAn-dnILhqdXVQ-4" style="edgeStyle=none;rounded=0;sketch=1;hachureGap=4;jiggle=2;curveFitting=1;orthogonalLoop=1;jettySize=auto;html=1;fontFamily=Architects Daughter;fontSource=https://fonts.googleapis.com/css?family=Architects+Daughter;fontSize=16;" edge="1" parent="1" source="VNHyF-aAn-dnILhqdXVQ-5" target="VNHyF-aAn-dnILhqdXVQ-1">
          <mxGeometry relative="1" as="geometry" />
        </mxCell>
        <mxCell id="VNHyF-aAn-dnILhqdXVQ-5" value="Chapter" style="ellipse;whiteSpace=wrap;html=1;aspect=fixed;sketch=1;hachureGap=4;jiggle=2;curveFitting=1;fontFamily=Architects Daughter;fontSource=https://fonts.googleapis.com/css?family=Architects+Daughter;fontSize=20;fillColor=#d5e8d4;strokeColor=#82b366;" vertex="1" parent="1">
          <mxGeometry x="470" y="270" width="110" height="110" as="geometry" />
        </mxCell>
        <mxCell id="VNHyF-aAn-dnILhqdXVQ-6" value="" style="endArrow=classic;html=1;rounded=0;sketch=1;hachureGap=4;jiggle=2;curveFitting=1;fontFamily=Architects Daughter;fontSource=https://fonts.googleapis.com/css?family=Architects+Daughter;fontSize=16;entryX=1;entryY=0.5;entryDx=0;entryDy=0;exitX=0;exitY=0.5;exitDx=0;exitDy=0;" edge="1" parent="1" source="VNHyF-aAn-dnILhqdXVQ-5" target="VNHyF-aAn-dnILhqdXVQ-3">
          <mxGeometry width="50" height="50" relative="1" as="geometry">
            <mxPoint x="390" y="420" as="sourcePoint" />
            <mxPoint x="440" y="370" as="targetPoint" />
          </mxGeometry>
        </mxCell>
        <mxCell id="VNHyF-aAn-dnILhqdXVQ-7" value="isPartOf" style="text;html=1;align=center;verticalAlign=middle;resizable=0;points=[];autosize=1;strokeColor=none;fillColor=none;fontSize=20;fontFamily=Architects Daughter;" vertex="1" parent="1">
          <mxGeometry x="320" y="280" width="100" height="40" as="geometry" />
        </mxCell>
        <mxCell id="VNHyF-aAn-dnILhqdXVQ-8" value="subClassOf" style="text;html=1;strokeColor=none;fillColor=none;align=center;verticalAlign=middle;whiteSpace=wrap;rounded=0;fontSize=20;fontFamily=Architects Daughter;" vertex="1" parent="1">
          <mxGeometry x="450" y="190" width="100" height="30" as="geometry" />
        </mxCell>
        <mxCell id="VNHyF-aAn-dnILhqdXVQ-9" value="subClassOf" style="text;html=1;strokeColor=none;fillColor=none;align=center;verticalAlign=middle;whiteSpace=wrap;rounded=0;fontSize=20;fontFamily=Architects Daughter;" vertex="1" parent="1">
          <mxGeometry x="180" y="190" width="100" height="30" as="geometry" />
        </mxCell>
        <mxCell id="VNHyF-aAn-dnILhqdXVQ-10" value="&lt;span style=&quot;font-size: 18px;&quot;&gt;Books Dataset&lt;/span&gt;" style="ellipse;whiteSpace=wrap;html=1;aspect=fixed;sketch=1;hachureGap=4;jiggle=2;curveFitting=1;fontFamily=Architects Daughter;fontSource=https://fonts.googleapis.com/css?family=Architects+Daughter;fontSize=20;fillColor=#dae8fc;strokeColor=#6c8ebf;" vertex="1" parent="1">
          <mxGeometry x="210" y="430" width="110" height="110" as="geometry" />
        </mxCell>
        <mxCell id="VNHyF-aAn-dnILhqdXVQ-11" value="Books" style="shape=table;startSize=30;container=1;collapsible=0;childLayout=tableLayout;strokeColor=default;fontSize=16;sketch=1;hachureGap=4;jiggle=2;curveFitting=1;fontFamily=Architects Daughter;fontSource=https://fonts.googleapis.com/css?family=Architects+Daughter;fillColor=#7EA6E0;fontStyle=1" vertex="1" parent="1">
          <mxGeometry x="130" y="630" width="165" height="110" as="geometry" />
        </mxCell>
        <mxCell id="VNHyF-aAn-dnILhqdXVQ-12" value="" style="shape=tableRow;horizontal=0;startSize=0;swimlaneHead=0;swimlaneBody=0;strokeColor=inherit;top=0;left=0;bottom=0;right=0;collapsible=0;dropTarget=0;fillColor=none;points=[[0,0.5],[1,0.5]];portConstraint=eastwest;fontSize=16;sketch=1;hachureGap=4;jiggle=2;curveFitting=1;fontFamily=Architects Daughter;fontSource=https://fonts.googleapis.com/css?family=Architects+Daughter;" vertex="1" parent="VNHyF-aAn-dnILhqdXVQ-11">
          <mxGeometry y="30" width="165" height="27" as="geometry" />
        </mxCell>
        <mxCell id="VNHyF-aAn-dnILhqdXVQ-13" value="" style="shape=partialRectangle;html=1;whiteSpace=wrap;connectable=0;strokeColor=inherit;overflow=hidden;fillColor=none;top=0;left=0;bottom=0;right=0;pointerEvents=1;fontSize=16;sketch=1;hachureGap=4;jiggle=2;curveFitting=1;fontFamily=Architects Daughter;fontSource=https://fonts.googleapis.com/css?family=Architects+Daughter;" vertex="1" parent="VNHyF-aAn-dnILhqdXVQ-12">
          <mxGeometry width="55" height="27" as="geometry">
            <mxRectangle width="55" height="27" as="alternateBounds" />
          </mxGeometry>
        </mxCell>
        <mxCell id="VNHyF-aAn-dnILhqdXVQ-14" value="" style="shape=partialRectangle;html=1;whiteSpace=wrap;connectable=0;strokeColor=inherit;overflow=hidden;fillColor=none;top=0;left=0;bottom=0;right=0;pointerEvents=1;fontSize=16;sketch=1;hachureGap=4;jiggle=2;curveFitting=1;fontFamily=Architects Daughter;fontSource=https://fonts.googleapis.com/css?family=Architects+Daughter;" vertex="1" parent="VNHyF-aAn-dnILhqdXVQ-12">
          <mxGeometry x="55" width="55" height="27" as="geometry">
            <mxRectangle width="55" height="27" as="alternateBounds" />
          </mxGeometry>
        </mxCell>
        <mxCell id="VNHyF-aAn-dnILhqdXVQ-15" value="" style="shape=partialRectangle;html=1;whiteSpace=wrap;connectable=0;strokeColor=inherit;overflow=hidden;fillColor=none;top=0;left=0;bottom=0;right=0;pointerEvents=1;fontSize=16;sketch=1;hachureGap=4;jiggle=2;curveFitting=1;fontFamily=Architects Daughter;fontSource=https://fonts.googleapis.com/css?family=Architects+Daughter;" vertex="1" parent="VNHyF-aAn-dnILhqdXVQ-12">
          <mxGeometry x="110" width="55" height="27" as="geometry">
            <mxRectangle width="55" height="27" as="alternateBounds" />
          </mxGeometry>
        </mxCell>
        <mxCell id="VNHyF-aAn-dnILhqdXVQ-16" value="" style="shape=tableRow;horizontal=0;startSize=0;swimlaneHead=0;swimlaneBody=0;strokeColor=inherit;top=0;left=0;bottom=0;right=0;collapsible=0;dropTarget=0;fillColor=none;points=[[0,0.5],[1,0.5]];portConstraint=eastwest;fontSize=16;sketch=1;hachureGap=4;jiggle=2;curveFitting=1;fontFamily=Architects Daughter;fontSource=https://fonts.googleapis.com/css?family=Architects+Daughter;" vertex="1" parent="VNHyF-aAn-dnILhqdXVQ-11">
          <mxGeometry y="57" width="165" height="26" as="geometry" />
        </mxCell>
        <mxCell id="VNHyF-aAn-dnILhqdXVQ-17" value="" style="shape=partialRectangle;html=1;whiteSpace=wrap;connectable=0;strokeColor=inherit;overflow=hidden;fillColor=none;top=0;left=0;bottom=0;right=0;pointerEvents=1;fontSize=16;sketch=1;hachureGap=4;jiggle=2;curveFitting=1;fontFamily=Architects Daughter;fontSource=https://fonts.googleapis.com/css?family=Architects+Daughter;" vertex="1" parent="VNHyF-aAn-dnILhqdXVQ-16">
          <mxGeometry width="55" height="26" as="geometry">
            <mxRectangle width="55" height="26" as="alternateBounds" />
          </mxGeometry>
        </mxCell>
        <mxCell id="VNHyF-aAn-dnILhqdXVQ-18" value="" style="shape=partialRectangle;html=1;whiteSpace=wrap;connectable=0;strokeColor=inherit;overflow=hidden;fillColor=none;top=0;left=0;bottom=0;right=0;pointerEvents=1;fontSize=16;sketch=1;hachureGap=4;jiggle=2;curveFitting=1;fontFamily=Architects Daughter;fontSource=https://fonts.googleapis.com/css?family=Architects+Daughter;" vertex="1" parent="VNHyF-aAn-dnILhqdXVQ-16">
          <mxGeometry x="55" width="55" height="26" as="geometry">
            <mxRectangle width="55" height="26" as="alternateBounds" />
          </mxGeometry>
        </mxCell>
        <mxCell id="VNHyF-aAn-dnILhqdXVQ-19" value="" style="shape=partialRectangle;html=1;whiteSpace=wrap;connectable=0;strokeColor=inherit;overflow=hidden;fillColor=none;top=0;left=0;bottom=0;right=0;pointerEvents=1;fontSize=16;sketch=1;hachureGap=4;jiggle=2;curveFitting=1;fontFamily=Architects Daughter;fontSource=https://fonts.googleapis.com/css?family=Architects+Daughter;" vertex="1" parent="VNHyF-aAn-dnILhqdXVQ-16">
          <mxGeometry x="110" width="55" height="26" as="geometry">
            <mxRectangle width="55" height="26" as="alternateBounds" />
          </mxGeometry>
        </mxCell>
        <mxCell id="VNHyF-aAn-dnILhqdXVQ-20" value="" style="shape=tableRow;horizontal=0;startSize=0;swimlaneHead=0;swimlaneBody=0;strokeColor=inherit;top=0;left=0;bottom=0;right=0;collapsible=0;dropTarget=0;fillColor=none;points=[[0,0.5],[1,0.5]];portConstraint=eastwest;fontSize=16;sketch=1;hachureGap=4;jiggle=2;curveFitting=1;fontFamily=Architects Daughter;fontSource=https://fonts.googleapis.com/css?family=Architects+Daughter;" vertex="1" parent="VNHyF-aAn-dnILhqdXVQ-11">
          <mxGeometry y="83" width="165" height="27" as="geometry" />
        </mxCell>
        <mxCell id="VNHyF-aAn-dnILhqdXVQ-21" value="" style="shape=partialRectangle;html=1;whiteSpace=wrap;connectable=0;strokeColor=inherit;overflow=hidden;fillColor=none;top=0;left=0;bottom=0;right=0;pointerEvents=1;fontSize=16;sketch=1;hachureGap=4;jiggle=2;curveFitting=1;fontFamily=Architects Daughter;fontSource=https://fonts.googleapis.com/css?family=Architects+Daughter;" vertex="1" parent="VNHyF-aAn-dnILhqdXVQ-20">
          <mxGeometry width="55" height="27" as="geometry">
            <mxRectangle width="55" height="27" as="alternateBounds" />
          </mxGeometry>
        </mxCell>
        <mxCell id="VNHyF-aAn-dnILhqdXVQ-22" value="" style="shape=partialRectangle;html=1;whiteSpace=wrap;connectable=0;strokeColor=inherit;overflow=hidden;fillColor=none;top=0;left=0;bottom=0;right=0;pointerEvents=1;fontSize=16;sketch=1;hachureGap=4;jiggle=2;curveFitting=1;fontFamily=Architects Daughter;fontSource=https://fonts.googleapis.com/css?family=Architects+Daughter;" vertex="1" parent="VNHyF-aAn-dnILhqdXVQ-20">
          <mxGeometry x="55" width="55" height="27" as="geometry">
            <mxRectangle width="55" height="27" as="alternateBounds" />
          </mxGeometry>
        </mxCell>
        <mxCell id="VNHyF-aAn-dnILhqdXVQ-23" value="" style="shape=partialRectangle;html=1;whiteSpace=wrap;connectable=0;strokeColor=inherit;overflow=hidden;fillColor=none;top=0;left=0;bottom=0;right=0;pointerEvents=1;fontSize=16;sketch=1;hachureGap=4;jiggle=2;curveFitting=1;fontFamily=Architects Daughter;fontSource=https://fonts.googleapis.com/css?family=Architects+Daughter;" vertex="1" parent="VNHyF-aAn-dnILhqdXVQ-20">
          <mxGeometry x="110" width="55" height="27" as="geometry">
            <mxRectangle width="55" height="27" as="alternateBounds" />
          </mxGeometry>
        </mxCell>
        <mxCell id="VNHyF-aAn-dnILhqdXVQ-24" value="" style="endArrow=none;dashed=1;html=1;dashPattern=1 3;strokeWidth=2;rounded=0;sketch=1;hachureGap=4;jiggle=2;curveFitting=1;fontFamily=Architects Daughter;fontSource=https://fonts.googleapis.com/css?family=Architects+Daughter;fontSize=16;fontColor=#B3B3B3;strokeColor=#666666;" edge="1" parent="1">
          <mxGeometry width="50" height="50" relative="1" as="geometry">
            <mxPoint x="-160" y="400" as="sourcePoint" />
            <mxPoint x="760" y="400" as="targetPoint" />
          </mxGeometry>
        </mxCell>
        <mxCell id="VNHyF-aAn-dnILhqdXVQ-25" value="&lt;b&gt;&lt;font style=&quot;font-size: 25px;&quot;&gt;Classes&lt;/font&gt;&lt;/b&gt;" style="text;html=1;strokeColor=none;fillColor=none;align=center;verticalAlign=middle;whiteSpace=wrap;rounded=0;fontSize=20;fontFamily=Architects Daughter;fontColor=#4D4D4D;" vertex="1" parent="1">
          <mxGeometry x="650" y="300" width="60" height="30" as="geometry" />
        </mxCell>
        <mxCell id="VNHyF-aAn-dnILhqdXVQ-26" value="&lt;b&gt;&lt;font style=&quot;font-size: 25px;&quot;&gt;Instances&lt;/font&gt;&lt;/b&gt;" style="text;html=1;strokeColor=none;fillColor=none;align=center;verticalAlign=middle;whiteSpace=wrap;rounded=0;fontSize=20;fontFamily=Architects Daughter;fontColor=#4D4D4D;" vertex="1" parent="1">
          <mxGeometry x="660" y="490" width="60" height="30" as="geometry" />
        </mxCell>
        <mxCell id="VNHyF-aAn-dnILhqdXVQ-27" value="" style="endArrow=none;html=1;strokeWidth=2;rounded=0;sketch=1;hachureGap=4;jiggle=2;curveFitting=1;fontFamily=Architects Daughter;fontSource=https://fonts.googleapis.com/css?family=Architects+Daughter;fontSize=16;fontColor=#B3B3B3;" edge="1" parent="1">
          <mxGeometry width="50" height="50" relative="1" as="geometry">
            <mxPoint x="-160" y="590" as="sourcePoint" />
            <mxPoint x="760" y="584" as="targetPoint" />
          </mxGeometry>
        </mxCell>
        <mxCell id="VNHyF-aAn-dnILhqdXVQ-28" value="&lt;b&gt;&lt;font style=&quot;font-size: 25px;&quot;&gt;Physical Data&lt;/font&gt;&lt;/b&gt;" style="text;html=1;strokeColor=none;fillColor=none;align=center;verticalAlign=middle;whiteSpace=wrap;rounded=0;fontSize=20;fontFamily=Architects Daughter;fontColor=#4D4D4D;" vertex="1" parent="1">
          <mxGeometry x="660" y="650" width="60" height="30" as="geometry" />
        </mxCell>
        <mxCell id="VNHyF-aAn-dnILhqdXVQ-29" value="&lt;b&gt;&lt;font style=&quot;font-size: 25px;&quot;&gt;Link by REFERENCE&lt;/font&gt;&lt;/b&gt;" style="text;html=1;strokeColor=none;fillColor=none;align=center;verticalAlign=middle;whiteSpace=wrap;rounded=0;fontSize=20;fontFamily=Architects Daughter;" vertex="1" parent="1">
          <mxGeometry x="-140" y="-10" width="900" height="50" as="geometry" />
        </mxCell>
        <mxCell id="VNHyF-aAn-dnILhqdXVQ-30" value="" style="html=1;shadow=0;dashed=0;align=center;verticalAlign=middle;shape=mxgraph.arrows2.uTurnArrow;dy=11;arrowHead=43;dx2=46.25;sketch=1;hachureGap=4;jiggle=2;curveFitting=1;fontFamily=Architects Daughter;fontSource=https://fonts.googleapis.com/css?family=Architects+Daughter;fontSize=20;rotation=-180;flipV=1;fillColor=#007FFF;strokeColor=#007FFF;" vertex="1" parent="1">
          <mxGeometry x="310" y="470" width="330" height="230" as="geometry" />
        </mxCell>
        <mxCell id="VNHyF-aAn-dnILhqdXVQ-31" value="&lt;span style=&quot;background-color: rgb(126, 166, 224);&quot;&gt;added as references&lt;/span&gt;" style="text;html=1;strokeColor=none;fillColor=none;align=center;verticalAlign=middle;whiteSpace=wrap;rounded=0;fontSize=20;fontFamily=Architects Daughter;" vertex="1" parent="1">
          <mxGeometry x="490" y="430" width="200" height="30" as="geometry" />
        </mxCell>
        <mxCell id="VNHyF-aAn-dnILhqdXVQ-32" value="" style="edgeStyle=none;rounded=0;sketch=1;hachureGap=4;jiggle=2;curveFitting=1;orthogonalLoop=1;jettySize=auto;html=1;fontFamily=Architects Daughter;fontSource=https://fonts.googleapis.com/css?family=Architects+Daughter;fontSize=16;" edge="1" parent="1" target="VNHyF-aAn-dnILhqdXVQ-48">
          <mxGeometry relative="1" as="geometry">
            <mxPoint x="460" y="527.5" as="sourcePoint" />
          </mxGeometry>
        </mxCell>
        <mxCell id="VNHyF-aAn-dnILhqdXVQ-33" value="DataOps&lt;br&gt;Platform" style="shape=loopLimit;whiteSpace=wrap;html=1;sketch=1;hachureGap=4;jiggle=2;curveFitting=1;fontFamily=Architects Daughter;fontSource=https://fonts.googleapis.com/css?family=Architects+Daughter;fontSize=20;fillColor=#7EA6E0;fillStyle=solid;" vertex="1" parent="1">
          <mxGeometry x="570" y="550" width="100" height="80" as="geometry" />
        </mxCell>
        <mxCell id="VNHyF-aAn-dnILhqdXVQ-34" value="&lt;span style=&quot;background-color: rgb(255, 153, 255);&quot;&gt;semantic link&lt;/span&gt;" style="text;html=1;strokeColor=none;fillColor=none;align=center;verticalAlign=middle;whiteSpace=wrap;rounded=0;fontSize=20;fontFamily=Architects Daughter;" vertex="1" parent="1">
          <mxGeometry x="270" y="525" width="200" height="30" as="geometry" />
        </mxCell>
        <mxCell id="VNHyF-aAn-dnILhqdXVQ-35" value="Federated &lt;br&gt;modeling &lt;br&gt;team" style="shape=umlActor;verticalLabelPosition=bottom;verticalAlign=top;html=1;outlineConnect=0;sketch=1;curveFitting=1;jiggle=2;fillColor=#009900;strokeColor=#000000;fillStyle=solid;" vertex="1" parent="1">
          <mxGeometry x="-130" y="160" width="30" height="60" as="geometry" />
        </mxCell>
        <mxCell id="VNHyF-aAn-dnILhqdXVQ-36" value="Dataset" style="ellipse;whiteSpace=wrap;html=1;aspect=fixed;sketch=1;hachureGap=4;jiggle=2;curveFitting=1;fontFamily=Architects Daughter;fontSource=https://fonts.googleapis.com/css?family=Architects+Daughter;fontSize=20;fillColor=#d5e8d4;strokeColor=#82b366;" vertex="1" parent="1">
          <mxGeometry x="80" y="70" width="110" height="110" as="geometry" />
        </mxCell>
        <mxCell id="VNHyF-aAn-dnILhqdXVQ-37" value="Data&lt;br&gt;Service" style="ellipse;whiteSpace=wrap;html=1;aspect=fixed;sketch=1;hachureGap=4;jiggle=2;curveFitting=1;fontFamily=Architects Daughter;fontSource=https://fonts.googleapis.com/css?family=Architects+Daughter;fontSize=20;fillColor=#d5e8d4;strokeColor=#82b366;" vertex="1" parent="1">
          <mxGeometry x="-60" y="260" width="110" height="110" as="geometry" />
        </mxCell>
        <mxCell id="VNHyF-aAn-dnILhqdXVQ-38" style="edgeStyle=none;rounded=0;sketch=1;hachureGap=4;jiggle=2;curveFitting=1;orthogonalLoop=1;jettySize=auto;html=1;entryX=0;entryY=0.5;entryDx=0;entryDy=0;fontFamily=Architects Daughter;fontSource=https://fonts.googleapis.com/css?family=Architects+Daughter;fontSize=16;" edge="1" parent="1" source="VNHyF-aAn-dnILhqdXVQ-39" target="VNHyF-aAn-dnILhqdXVQ-10">
          <mxGeometry relative="1" as="geometry" />
        </mxCell>
        <mxCell id="VNHyF-aAn-dnILhqdXVQ-39" value="&lt;span style=&quot;font-size: 18px;&quot;&gt;Books Output Port&lt;/span&gt;" style="ellipse;whiteSpace=wrap;html=1;aspect=fixed;sketch=1;hachureGap=4;jiggle=2;curveFitting=1;fontFamily=Architects Daughter;fontSource=https://fonts.googleapis.com/css?family=Architects+Daughter;fontSize=20;fillColor=#dae8fc;strokeColor=#6c8ebf;" vertex="1" parent="1">
          <mxGeometry y="430" width="110" height="110" as="geometry" />
        </mxCell>
        <mxCell id="VNHyF-aAn-dnILhqdXVQ-40" style="edgeStyle=none;rounded=0;sketch=1;hachureGap=4;jiggle=2;curveFitting=1;orthogonalLoop=1;jettySize=auto;html=1;exitX=1;exitY=0;exitDx=0;exitDy=0;entryX=0.409;entryY=1;entryDx=0;entryDy=0;entryPerimeter=0;fontFamily=Architects Daughter;fontSource=https://fonts.googleapis.com/css?family=Architects+Daughter;fontSize=16;" edge="1" parent="1" source="VNHyF-aAn-dnILhqdXVQ-37" target="VNHyF-aAn-dnILhqdXVQ-36">
          <mxGeometry relative="1" as="geometry" />
        </mxCell>
        <mxCell id="VNHyF-aAn-dnILhqdXVQ-41" value="type" style="text;html=1;strokeColor=none;fillColor=none;align=center;verticalAlign=middle;whiteSpace=wrap;rounded=0;fontSize=20;fontFamily=Architects Daughter;" vertex="1" parent="1">
          <mxGeometry x="-60" y="400" width="100" height="30" as="geometry" />
        </mxCell>
        <mxCell id="VNHyF-aAn-dnILhqdXVQ-42" value="servesDataset" style="text;html=1;strokeColor=none;fillColor=none;align=center;verticalAlign=middle;whiteSpace=wrap;rounded=0;fontSize=20;fontFamily=Architects Daughter;" vertex="1" parent="1">
          <mxGeometry x="-30" y="190" width="100" height="30" as="geometry" />
        </mxCell>
        <mxCell id="VNHyF-aAn-dnILhqdXVQ-43" style="edgeStyle=none;rounded=0;sketch=1;hachureGap=4;jiggle=2;curveFitting=1;orthogonalLoop=1;jettySize=auto;html=1;entryX=0.636;entryY=0.964;entryDx=0;entryDy=0;entryPerimeter=0;fontFamily=Architects Daughter;fontSource=https://fonts.googleapis.com/css?family=Architects+Daughter;fontSize=16;" edge="1" parent="1" source="VNHyF-aAn-dnILhqdXVQ-10" target="VNHyF-aAn-dnILhqdXVQ-3">
          <mxGeometry relative="1" as="geometry" />
        </mxCell>
        <mxCell id="VNHyF-aAn-dnILhqdXVQ-44" style="edgeStyle=none;rounded=0;sketch=1;hachureGap=4;jiggle=2;curveFitting=1;orthogonalLoop=1;jettySize=auto;html=1;fontFamily=Architects Daughter;fontSource=https://fonts.googleapis.com/css?family=Architects+Daughter;fontSize=16;entryX=0.591;entryY=1.009;entryDx=0;entryDy=0;entryPerimeter=0;" edge="1" parent="1" source="VNHyF-aAn-dnILhqdXVQ-39" target="VNHyF-aAn-dnILhqdXVQ-37">
          <mxGeometry relative="1" as="geometry" />
        </mxCell>
        <mxCell id="VNHyF-aAn-dnILhqdXVQ-45" value="servesDataset" style="text;html=1;strokeColor=none;fillColor=none;align=center;verticalAlign=middle;whiteSpace=wrap;rounded=0;fontSize=20;fontFamily=Architects Daughter;" vertex="1" parent="1">
          <mxGeometry x="110" y="520" width="100" height="30" as="geometry" />
        </mxCell>
        <mxCell id="VNHyF-aAn-dnILhqdXVQ-46" value="conformsTo" style="text;html=1;strokeColor=none;fillColor=none;align=center;verticalAlign=middle;whiteSpace=wrap;rounded=0;fontSize=20;fontFamily=Architects Daughter;" vertex="1" parent="1">
          <mxGeometry x="110" y="400" width="100" height="30" as="geometry" />
        </mxCell>
        <mxCell id="VNHyF-aAn-dnILhqdXVQ-47" value="isPartOf" style="text;html=1;align=center;verticalAlign=middle;resizable=0;points=[];autosize=1;strokeColor=none;fillColor=none;fontSize=20;fontFamily=Architects Daughter;" vertex="1" parent="1">
          <mxGeometry x="320" y="280" width="100" height="40" as="geometry" />
        </mxCell>
        <mxCell id="VNHyF-aAn-dnILhqdXVQ-48" value="" style="html=1;shadow=0;dashed=0;align=center;verticalAlign=middle;shape=mxgraph.arrows2.uTurnArrow;dy=11;arrowHead=43;dx2=46.25;sketch=1;hachureGap=4;jiggle=2;curveFitting=1;fontFamily=Architects Daughter;fontSource=https://fonts.googleapis.com/css?family=Architects+Daughter;fontSize=20;rotation=-180;flipV=1;fillColor=#CC00CC;strokeColor=#CC00CC;" vertex="1" parent="1">
          <mxGeometry x="320" y="340" width="150" height="310" as="geometry" />
        </mxCell>
        <mxCell id="VNHyF-aAn-dnILhqdXVQ-49" value="&lt;span style=&quot;background-color: rgb(255, 255, 255);&quot;&gt;Data product&lt;br&gt;teams&lt;/span&gt;" style="shape=umlActor;verticalLabelPosition=bottom;verticalAlign=top;html=1;outlineConnect=0;sketch=1;curveFitting=1;jiggle=2;fillColor=#0066CC;strokeColor=#000000;fillStyle=solid;" vertex="1" parent="1">
          <mxGeometry x="450" y="520" width="30" height="60" as="geometry" />
        </mxCell>
      </root>
    </mxGraphModel>
  </diagram>
</mxfile>
